<svg width="369" height="145" viewBox="0 0 369 145" fill="none" xmlns="http://www.w3.org/2000/svg">
<g filter="url(#filter0_d_34_2443)">
<circle cx="185" cy="64.5" r="40" fill="white"/>
</g>
<path d="M177 69.2999C177 69.6999 177.2 70.0999 177.6 70.2999L182.6 73.2999C183.2 73.6999 183.8 73.2999 183.8 72.6999V67.0999C183.8 66.8999 183.6 66.4999 183.4 66.4999L178.2 63.0999C177.8 62.8999 177 63.2999 177 63.8999V69.2999Z" fill="#091E42"/>
<path d="M184.6 66.8997V72.4997C184.6 73.0997 185.2 73.4997 185.8 73.0997L190.8 70.0997C191.2 69.8997 191.4 69.4997 191.4 69.0997V63.8997C191.4 63.2997 190.8 62.8997 190.2 63.2997L185 66.0997C184.8 66.2997 184.6 66.4997 184.6 66.8997Z" fill="#091E42"/>
<path d="M190.2 62.2998L184.6 65.4998C184.4 65.6998 184 65.6998 183.8 65.4998L178.2 62.2998C177.6 61.8998 177.6 61.2998 178.2 60.8998L183.8 57.6998C184 57.4998 184.4 57.4998 184.6 57.6998L190.2 60.8998C190.8 61.0998 190.8 61.8998 190.2 62.2998Z" fill="#36B37E"/>
<path d="M165 80.5001C165 80.9001 165.2 81.3001 165.6 81.5001L170.6 84.5001C171.2 84.9001 171.8 84.5001 171.8 83.9001V78.3001C171.8 78.1001 171.6 77.7001 171.4 77.7001L166.2 74.7001C165.6 74.3001 165 74.7001 165 75.3001V80.5001V80.5001Z" fill="#091E42"/>
<path d="M172.6 77.9003V83.5003C172.6 84.1003 173.2 84.5003 173.8 84.1003L178.8 81.1003C179.2 80.9003 179.4 80.5003 179.4 80.1003V74.5003C179.4 73.9003 178.8 73.5003 178.2 73.9003L173 77.3003C172.8 77.5003 172.6 77.7003 172.6 77.9003Z" fill="#091E42"/>
<path d="M178.2 73.2998L172.6 76.4998C172.4 76.6998 172 76.6998 171.8 76.4998L166.2 73.2998C165.6 72.8998 165.6 72.2998 166.2 71.8998L171.8 68.6998C172 68.4998 172.4 68.4998 172.6 68.6998L178.2 71.8998C178.6 72.2998 178.6 73.0998 178.2 73.2998Z" fill="#36B37E"/>
<path d="M189.2 80.5001C189.2 80.9001 189.4 81.3001 189.8 81.5001L194.8 84.5001C195.4 84.9001 196 84.5001 196 83.9001V78.3001C196 78.1001 195.8 77.7001 195.6 77.7001L190.4 74.7001C189.8 74.3001 189.2 74.7001 189.2 75.3001V80.5001Z" fill="#091E42"/>
<path d="M196.6 77.9003V83.5003C196.6 84.1003 197.2 84.5003 197.8 84.1003L202.8 81.1003C203.2 80.9003 203.4 80.5003 203.4 80.1003V74.5003C203.4 73.9003 202.8 73.5003 202.2 73.9003L197 77.3003C196.8 77.5003 196.6 77.7003 196.6 77.9003Z" fill="#091E42"/>
<path d="M202.2 73.2998L196.6 76.4998C196.4 76.6998 196 76.6998 195.8 76.4998L190.2 73.2998C189.6 72.8998 189.6 72.2998 190.2 71.8998L195.8 68.6998C196 68.4998 196.4 68.4998 196.6 68.6998L202.2 71.8998C202.8 72.2998 202.8 73.0998 202.2 73.2998Z" fill="#36B37E"/>
<path d="M165 58.3005C165 58.7005 165.2 59.1005 165.6 59.3005L170.6 62.3005C171 62.5005 171.8 62.1005 171.8 61.5005V55.7005C171.8 55.5005 171.6 55.1005 171.4 55.1005L166.2 52.1005C165.6 51.9005 165 52.1005 165 52.9005V58.3005Z" fill="#091E42"/>
<path d="M172.6 55.6997V61.2997C172.6 61.8997 173.2 62.2997 173.8 61.8997L178.8 58.8997C179.2 58.6997 179.4 58.2997 179.4 57.8997V52.8997C179.4 52.2997 178.8 51.8997 178.2 52.2997L173 55.0997C172.8 55.2997 172.6 55.4997 172.6 55.6997Z" fill="#091E42"/>
<path d="M178.2 51.1L172.6 54.3C172.4 54.5 172 54.5 171.8 54.3L166.2 51.1C165.6 50.7 165.6 50.1 166.2 49.7L171.8 46.5C172 46.5 172.4 46.5 172.6 46.7L178.2 49.9C178.6 50.1 178.6 50.9 178.2 51.1Z" fill="#36B37E"/>
<path d="M189.2 58.3005C189.2 58.7005 189.4 59.1005 189.8 59.3005L194.8 62.3005C195.4 62.7005 196 62.3005 196 61.7005V55.7005C196 55.5005 195.8 55.1005 195.6 55.1005L190.4 52.1005C189.8 51.7005 189.2 52.1005 189.2 52.7005V58.3005Z" fill="#091E42"/>
<path d="M196.6 55.6997V61.2997C196.6 61.8997 197.2 62.2997 197.8 61.8997L202.8 58.8997C203.2 58.6997 203.4 58.2997 203.4 57.8997V52.8997C203.4 52.2997 202.8 51.8997 202.2 52.2997L197 55.0997C196.8 55.2997 196.6 55.4997 196.6 55.6997Z" fill="#091E42"/>
<path d="M202.2 51.0998L196.6 54.4998C196.4 54.4998 196.2 54.4998 195.8 54.4998L190.2 51.2998C189.6 50.8998 189.6 50.2998 190.2 49.8998L195.8 46.6998C196 46.4998 196.4 46.4998 196.6 46.6998L202.2 49.8998C202.8 50.0998 202.8 50.8998 202.2 51.0998Z" fill="#36B37E"/>
<defs>
<filter id="filter0_d_34_2443" x="121" y="16.5" width="128" height="128" filterUnits="userSpaceOnUse" color-interpolation-filters="sRGB">
<feFlood flood-opacity="0" result="BackgroundImageFix"/>
<feColorMatrix in="SourceAlpha" type="matrix" values="0 0 0 0 0 0 0 0 0 0 0 0 0 0 0 0 0 0 127 0" result="hardAlpha"/>
<feOffset dy="16"/>
<feGaussianBlur stdDeviation="12"/>
<feColorMatrix type="matrix" values="0 0 0 0 0.145573 0 0 0 0 0.185183 0 0 0 0 0.5375 0 0 0 0.08 0"/>
<feBlend mode="normal" in2="BackgroundImageFix" result="effect1_dropShadow_34_2443"/>
<feBlend mode="normal" in="SourceGraphic" in2="effect1_dropShadow_34_2443" result="shape"/>
</filter>
</defs>
</svg>
