<svg width="369" height="145" viewBox="0 0 369 145" fill="none" xmlns="http://www.w3.org/2000/svg">
<g filter="url(#filter0_d_34_2479)">
<circle cx="185" cy="64.5" r="40" fill="white"/>
</g>
<g clip-path="url(#clip0_34_2479)">
<path d="M181.2 44.5H190.2C191.4 44.5 192.2 45.7 192 46.9L187.6 61.3H192.2C193.6 61.3 194.6 62.7 194 64.1L185 82.5C184.6 83.1 183.6 82.9 183.8 82.1L186 68.1H179C177.8 68.1 177 67.1 177.2 65.9L179.4 46.3C179.4 45.3 180.2 44.5 181.2 44.5Z" fill="#36B37E"/>
<path d="M163.437 57.1706L166.644 55.3185C167.072 55.0716 167.608 55.3406 167.787 55.8153L169.222 61.9238L170.862 60.9772C171.361 60.6891 172.009 60.9892 172.088 61.6185L172.718 70.1189C172.701 70.4181 172.303 70.5516 172.207 70.2214L170.071 64.7101L167.576 66.1506C167.148 66.3975 166.654 66.2008 166.475 65.7261L163.171 58.1914C162.962 57.83 163.08 57.3764 163.437 57.1706Z" fill="#091E42"/>
<path d="M207.626 57.1706L204.418 55.3185C203.99 55.0716 203.455 55.3406 203.276 55.8153L201.84 61.9238L200.2 60.9772C199.701 60.6891 199.053 60.9892 198.975 61.6185L198.344 70.1189C198.361 70.4181 198.76 70.5516 198.855 70.2214L200.992 64.7101L203.487 66.1506C203.914 66.3975 204.408 66.2008 204.587 65.7261L207.892 58.1914C208.1 57.83 207.982 57.3764 207.626 57.1706Z" fill="#091E42"/>
</g>
<defs>
<filter id="filter0_d_34_2479" x="121" y="16.5" width="128" height="128" filterUnits="userSpaceOnUse" color-interpolation-filters="sRGB">
<feFlood flood-opacity="0" result="BackgroundImageFix"/>
<feColorMatrix in="SourceAlpha" type="matrix" values="0 0 0 0 0 0 0 0 0 0 0 0 0 0 0 0 0 0 127 0" result="hardAlpha"/>
<feOffset dy="16"/>
<feGaussianBlur stdDeviation="12"/>
<feColorMatrix type="matrix" values="0 0 0 0 0.145573 0 0 0 0 0.185183 0 0 0 0 0.5375 0 0 0 0.08 0"/>
<feBlend mode="normal" in2="BackgroundImageFix" result="effect1_dropShadow_34_2479"/>
<feBlend mode="normal" in="SourceGraphic" in2="effect1_dropShadow_34_2479" result="shape"/>
</filter>
<clipPath id="clip0_34_2479">
<rect width="48" height="48" fill="white" transform="translate(161 40.5)"/>
</clipPath>
</defs>
</svg>
